<?xml version="1.0" standalone="no"?><!DOCTYPE svg PUBLIC "-//W3C//DTD SVG 1.1//EN" "http://www.w3.org/Graphics/SVG/1.1/DTD/svg11.dtd"><svg t="1591861739627" class="icon" viewBox="0 0 1024 1024" version="1.1" xmlns="http://www.w3.org/2000/svg" p-id="2137" xmlns:xlink="http://www.w3.org/1999/xlink" width="16" height="16"><defs><style type="text/css"></style></defs><path d="M192 64h-64v896h768V64H192z m640 832H192V128h640v768z" fill="#40E0D0" p-id="2138"></path><path d="M320 224h384v64H320z m0 192h64v64h-64z m160 0h64v64h-64z m160 0h64v64h-64zM320 576h64v64h-64z m160 0h64v64h-64z m160 0h64v64h-64zM320 736h64v64h-64z m160 0h64v64h-64z m160 0h64v64h-64z" fill="#40E0D0" p-id="2139"></path></svg>