<svg id="图层_1" data-name="图层 1" xmlns="http://www.w3.org/2000/svg" viewBox="0 0 16 16"><defs><style>.cls-1{fill:#40e0d0;}</style></defs><title>风机</title><path class="cls-1" d="M13,4V7H10.73l.2,1.17A5,5,0,1,1,6,4h7m1-1H6a6,6,0,1,0,5.91,5H14V3Z"/><path class="cls-1" d="M6,4A5,5,0,1,1,1,9,5,5,0,0,1,6,4M6,3a6,6,0,1,0,6,6A6,6,0,0,0,6,3Z"/><path class="cls-1" d="M15.49,8A.46.46,0,0,1,15,7.58V3.43a.51.51,0,0,1,1,0V7.58a.39.39,0,0,1-.15.3.55.55,0,0,1-.36.12Z"/><path class="cls-1" d="M9.23,7h0a2.16,2.16,0,0,0-1.67-.72A1.92,1.92,0,0,0,6.1,7.69a1.28,1.28,0,0,0-.35,0,1,1,0,0,1,0-.1c0-.05,0-.1,0-.16s0-.06,0-.1A3.47,3.47,0,0,0,5.74,6h0A.82.82,0,0,0,5,5.36a1.12,1.12,0,0,0-.4.08A2.85,2.85,0,0,0,2.83,7.21,2.14,2.14,0,0,0,3,9a1.58,1.58,0,0,0,1.37.6A3.35,3.35,0,0,0,5,9.56a1.31,1.31,0,0,0,.21.28l-.09,0L5,9.95l-.09,0a3.53,3.53,0,0,0-1.21.75h0a.8.8,0,0,0-.24.66.81.81,0,0,0,.37.59,3,3,0,0,0,1.86.7,2.61,2.61,0,0,0,.56-.06,2.15,2.15,0,0,0,1.46-1.08,1.91,1.91,0,0,0-.5-2,1.31,1.31,0,0,0,.14-.32l.08.06.13.09.06,0h0a3.51,3.51,0,0,0,1.26.67h.2a.79.79,0,0,0,.84-.75A2.82,2.82,0,0,0,9.23,7ZM6.08,8.29h.18a.66.66,0,0,1,.31,1.06l0,0a.66.66,0,0,1-1.08-.26V9.1a.62.62,0,0,1,0-.16A.66.66,0,0,1,6.08,8.29Zm-.89-1h0v.23a1.11,1.11,0,0,0,0,.51A1.25,1.25,0,0,0,4.82,9,2.75,2.75,0,0,1,4.4,9a1,1,0,0,1-.87-.34A1.55,1.55,0,0,1,3.4,7.4,2.25,2.25,0,0,1,4.81,6,.5.5,0,0,1,5,6c.06,0,.12,0,.2.22A3.3,3.3,0,0,1,5.19,7.31Zm1.93,4A1.56,1.56,0,0,1,6.07,12a1.82,1.82,0,0,1-.43,0,2.4,2.4,0,0,1-1.48-.56c-.17-.14-.19-.2,0-.41a3.33,3.33,0,0,1,1-.58l.11,0,.11,0a1.11,1.11,0,0,0,.44-.27h0a1.27,1.27,0,0,0,1-.15A1.33,1.33,0,0,1,7.12,11.29Zm2.17-2c0,.22-.1.24-.23.24H8.95A3.37,3.37,0,0,1,8,9l-.1-.07-.1-.07a1.09,1.09,0,0,0-.46-.24,1.27,1.27,0,0,0-.61-.76,1.34,1.34,0,0,1,.91-1,1.56,1.56,0,0,1,1.18.53A2.23,2.23,0,0,1,9.29,9.32Z"/></svg>